<svg xmlns="http://www.w3.org/2000/svg" viewBox="0 0 32 32" width="32" height="32">
  <g transform="translate(3.2, 3.2) scale(0.8)">
    <path id="path-0" d="M 7 10 h 18 v 1 h -18 Z" fill="rgb(0,0,0)" stroke="none" stroke-width="1" opacity="1" transform="scale(0.9422222222222223, 2.360000000000001)" />
    <path id="path-1" d="M 5 11 h 21 v 1 h -21 Z" fill="rgb(0,0,0)" stroke="none" stroke-width="1" opacity="1" />
    <path id="path-2" d="M 4 12 h 4 v 1 h -4 Z" fill="rgb(0,0,0)" stroke="none" stroke-width="1" opacity="1" />
    <path id="path-3" d="M 8 12 h 16 v 1 h -16 Z" fill="rgb(255,255,255)" stroke="none" stroke-width="1" opacity="1" />
    <path id="path-4" d="M 24 12 h 3 v 1 h -3 Z" fill="rgb(0,0,0)" stroke="none" stroke-width="1" opacity="1" />
    <path id="path-5" d="M 3 13 h 1 v 1 h -1 Z" fill="rgb(0,0,0)" stroke="none" stroke-width="1" opacity="1" />
    <path id="path-6" d="M 4 13 h 5 v 1 h -5 Z" fill="rgb(255,255,255)" stroke="none" stroke-width="1" opacity="1" />
    <path id="path-7" d="M 9 13 h 2 v 1 h -2 Z" fill="rgb(0,0,0)" stroke="none" stroke-width="1" opacity="1" />
    <path id="path-8" d="M 11 13 h 1 v 1 h -1 Z" fill="rgb(255,255,255)" stroke="none" stroke-width="1" opacity="1" />
    <path id="path-9" d="M 12 13 h 2 v 1 h -2 Z" fill="rgb(0,0,0)" stroke="none" stroke-width="1" opacity="1" />
    <path id="path-10" d="M 14 13 h 1 v 1 h -1 Z" fill="rgb(255,255,255)" stroke="none" stroke-width="1" opacity="1" />
    <path id="path-11" d="M 15 13 h 2 v 1 h -2 Z" fill="rgb(0,0,0)" stroke="none" stroke-width="1" opacity="1" />
    <path id="path-12" d="M 17 13 h 1 v 1 h -1 Z" fill="rgb(255,255,255)" stroke="none" stroke-width="1" opacity="1" />
    <path id="path-13" d="M 18 13 h 2 v 1 h -2 Z" fill="rgb(0,0,0)" stroke="none" stroke-width="1" opacity="1" />
    <path id="path-14" d="M 20 13 h 1 v 1 h -1 Z" fill="rgb(255,255,255)" stroke="none" stroke-width="1" opacity="1" />
    <path id="path-15" d="M 21 13 h 2 v 1 h -2 Z" fill="rgb(0,0,0)" stroke="none" stroke-width="1" opacity="1" />
    <path id="path-16" d="M 23 13 h 3 v 1 h -3 Z" fill="rgb(255,255,255)" stroke="none" stroke-width="1" opacity="1" />
    <path id="path-17" d="M 26 13 h 3 v 1 h -3 Z" fill="rgb(0,0,0)" stroke="none" stroke-width="1" opacity="1" />
    <path id="path-18" d="M 1 14 h 2 v 1 h -2 Z" fill="rgb(0,0,0)" stroke="none" stroke-width="1" opacity="1" />
    <path id="path-19" d="M 3 14 h 6 v 1 h -6 Z" fill="rgb(255,255,255)" stroke="none" stroke-width="1" opacity="1" />
    <path id="path-20" d="M 9 14 h 2 v 1 h -2 Z" fill="rgb(0,0,0)" stroke="none" stroke-width="1" opacity="1" />
    <path id="path-21" d="M 11 14 h 1 v 1 h -1 Z" fill="rgb(255,255,255)" stroke="none" stroke-width="1" opacity="1" />
    <path id="path-22" d="M 12 14 h 2 v 1 h -2 Z" fill="rgb(0,0,0)" stroke="none" stroke-width="1" opacity="1" />
    <path id="path-23" d="M 14 14 h 1 v 1 h -1 Z" fill="rgb(255,255,255)" stroke="none" stroke-width="1" opacity="1" />
    <path id="path-24" d="M 15 14 h 2 v 1 h -2 Z" fill="rgb(0,0,0)" stroke="none" stroke-width="1" opacity="1" />
    <path id="path-25" d="M 17 14 h 1 v 1 h -1 Z" fill="rgb(255,255,255)" stroke="none" stroke-width="1" opacity="1" />
    <path id="path-26" d="M 18 14 h 2 v 1 h -2 Z" fill="rgb(0,0,0)" stroke="none" stroke-width="1" opacity="1" />
    <path id="path-27" d="M 20 14 h 1 v 1 h -1 Z" fill="rgb(255,255,255)" stroke="none" stroke-width="1" opacity="1" />
    <path id="path-28" d="M 21 14 h 2 v 1 h -2 Z" fill="rgb(0,0,0)" stroke="none" stroke-width="1" opacity="1" />
    <path id="path-29" d="M 23 14 h 3 v 1 h -3 Z" fill="rgb(255,255,255)" stroke="none" stroke-width="1" opacity="1" />
    <path id="path-30" d="M 26 14 h 5 v 1 h -5 Z" fill="rgb(0,0,0)" stroke="none" stroke-width="1" opacity="1" />
    <path id="path-31" d="M 0 15 h 1 v 1 h -1 Z" fill="rgb(0,0,0)" stroke="none" stroke-width="1" opacity="1" />
    <path id="path-32" d="M 1 15 h 25 v 1 h -25 Z" fill="rgb(255,255,255)" stroke="none" stroke-width="1" opacity="1" />
    <path id="path-33" d="M 26 15 h 6 v 1 h -6 Z" fill="rgb(0,0,0)" stroke="none" stroke-width="1" opacity="1" />
    <path id="path-34" d="M 0 16 h 1 v 1 h -1 Z" fill="rgb(0,0,0)" stroke="none" stroke-width="1" opacity="1" />
    <path id="path-35" d="M 1 16 h 8 v 1 h -8 Z" fill="rgb(255,255,255)" stroke="none" stroke-width="1" opacity="1" />
    <path id="path-36" d="M 9 16 h 2 v 1 h -2 Z" fill="rgb(0,0,0)" stroke="none" stroke-width="1" opacity="1" />
    <path id="path-37" d="M 11 16 h 1 v 1 h -1 Z" fill="rgb(255,255,255)" stroke="none" stroke-width="1" opacity="1" />
    <path id="path-38" d="M 12 16 h 2 v 1 h -2 Z" fill="rgb(0,0,0)" stroke="none" stroke-width="1" opacity="1" />
    <path id="path-39" d="M 14 16 h 1 v 1 h -1 Z" fill="rgb(255,255,255)" stroke="none" stroke-width="1" opacity="1" />
    <path id="path-40" d="M 15 16 h 2 v 1 h -2 Z" fill="rgb(0,0,0)" stroke="none" stroke-width="1" opacity="1" />
    <path id="path-41" d="M 17 16 h 1 v 1 h -1 Z" fill="rgb(255,255,255)" stroke="none" stroke-width="1" opacity="1" />
    <path id="path-42" d="M 18 16 h 2 v 1 h -2 Z" fill="rgb(0,0,0)" stroke="none" stroke-width="1" opacity="1" />
    <path id="path-43" d="M 20 16 h 1 v 1 h -1 Z" fill="rgb(255,255,255)" stroke="none" stroke-width="1" opacity="1" />
    <path id="path-44" d="M 21 16 h 2 v 1 h -2 Z" fill="rgb(0,0,0)" stroke="none" stroke-width="1" opacity="1" />
    <path id="path-45" d="M 23 16 h 3 v 1 h -3 Z" fill="rgb(255,255,255)" stroke="none" stroke-width="1" opacity="1" />
    <path id="path-46" d="M 26 16 h 6 v 1 h -6 Z" fill="rgb(0,0,0)" stroke="none" stroke-width="1" opacity="1" />
    <path id="path-47" d="M 1 17 h 1 v 1 h -1 Z" fill="rgb(0,0,0)" stroke="none" stroke-width="1" opacity="1" />
    <path id="path-48" d="M 2 17 h 7 v 1 h -7 Z" fill="rgb(255,255,255)" stroke="none" stroke-width="1" opacity="1" />
    <path id="path-49" d="M 9 17 h 2 v 1 h -2 Z" fill="rgb(0,0,0)" stroke="none" stroke-width="1" opacity="1" />
    <path id="path-50" d="M 11 17 h 1 v 1 h -1 Z" fill="rgb(255,255,255)" stroke="none" stroke-width="1" opacity="1" />
    <path id="path-51" d="M 12 17 h 2 v 1 h -2 Z" fill="rgb(0,0,0)" stroke="none" stroke-width="1" opacity="1" />
    <path id="path-52" d="M 14 17 h 1 v 1 h -1 Z" fill="rgb(255,255,255)" stroke="none" stroke-width="1" opacity="1" />
    <path id="path-53" d="M 15 17 h 2 v 1 h -2 Z" fill="rgb(0,0,0)" stroke="none" stroke-width="1" opacity="1" />
    <path id="path-54" d="M 17 17 h 1 v 1 h -1 Z" fill="rgb(255,255,255)" stroke="none" stroke-width="1" opacity="1" />
    <path id="path-55" d="M 18 17 h 2 v 1 h -2 Z" fill="rgb(0,0,0)" stroke="none" stroke-width="1" opacity="1" />
    <path id="path-56" d="M 20 17 h 1 v 1 h -1 Z" fill="rgb(255,255,255)" stroke="none" stroke-width="1" opacity="1" />
    <path id="path-57" d="M 21 17 h 2 v 1 h -2 Z" fill="rgb(0,0,0)" stroke="none" stroke-width="1" opacity="1" />
    <path id="path-58" d="M 23 17 h 3 v 1 h -3 Z" fill="rgb(255,255,255)" stroke="none" stroke-width="1" opacity="1" />
    <path id="path-59" d="M 26 17 h 5 v 1 h -5 Z" fill="rgb(0,0,0)" stroke="none" stroke-width="1" opacity="1" />
    <path id="path-60" d="M 2 18 h 1 v 1 h -1 Z" fill="rgb(0,0,0)" stroke="none" stroke-width="1" opacity="1" />
    <path id="path-61" d="M 3 18 h 23 v 1 h -23 Z" fill="rgb(255,255,255)" stroke="none" stroke-width="1" opacity="1" />
    <path id="path-62" d="M 26 18 h 4 v 1 h -4 Z" fill="rgb(0,0,0)" stroke="none" stroke-width="1" opacity="1" />
    <path id="path-63" d="M 3 19 h 1 v 1 h -1 Z" fill="rgb(0,0,0)" stroke="none" stroke-width="1" opacity="1" />
    <path id="path-64" d="M 4 19 h 5 v 1 h -5 Z" fill="rgb(255,255,255)" stroke="none" stroke-width="1" opacity="1" />
    <path id="path-65" d="M 9 19 h 2 v 1 h -2 Z" fill="rgb(0,0,0)" stroke="none" stroke-width="1" opacity="1" />
    <path id="path-66" d="M 11 19 h 1 v 1 h -1 Z" fill="rgb(255,255,255)" stroke="none" stroke-width="1" opacity="1" />
    <path id="path-67" d="M 12 19 h 8 v 1 h -8 Z" fill="rgb(0,0,0)" stroke="none" stroke-width="1" opacity="1" />
    <path id="path-68" d="M 20 19 h 1 v 1 h -1 Z" fill="rgb(255,255,255)" stroke="none" stroke-width="1" opacity="1" />
    <path id="path-69" d="M 21 19 h 2 v 1 h -2 Z" fill="rgb(0,0,0)" stroke="none" stroke-width="1" opacity="1" />
    <path id="path-70" d="M 23 19 h 3 v 1 h -3 Z" fill="rgb(255,255,255)" stroke="none" stroke-width="1" opacity="1" />
    <path id="path-71" d="M 26 19 h 3 v 1 h -3 Z" fill="rgb(0,0,0)" stroke="none" stroke-width="1" opacity="1" />
    <path id="path-72" d="M 4 20 h 1 v 1 h -1 Z" fill="rgb(0,0,0)" stroke="none" stroke-width="1" opacity="1" />
    <path id="path-73" d="M 5 20 h 4 v 1 h -4 Z" fill="rgb(255,255,255)" stroke="none" stroke-width="1" opacity="1" />
    <path id="path-74" d="M 9 20 h 2 v 1 h -2 Z" fill="rgb(0,0,0)" stroke="none" stroke-width="1" opacity="1" />
    <path id="path-75" d="M 11 20 h 1 v 1 h -1 Z" fill="rgb(255,255,255)" stroke="none" stroke-width="1" opacity="1" />
    <path id="path-76" d="M 12 20 h 8 v 1 h -8 Z" fill="rgb(0,0,0)" stroke="none" stroke-width="1" opacity="1" />
    <path id="path-77" d="M 20 20 h 1 v 1 h -1 Z" fill="rgb(255,255,255)" stroke="none" stroke-width="1" opacity="1" />
    <path id="path-78" d="M 21 20 h 2 v 1 h -2 Z" fill="rgb(0,0,0)" stroke="none" stroke-width="1" opacity="1" />
    <path id="path-79" d="M 23 20 h 3 v 1 h -3 Z" fill="rgb(255,255,255)" stroke="none" stroke-width="1" opacity="1" />
    <path id="path-80" d="M 26 20 h 2 v 1 h -2 Z" fill="rgb(0,0,0)" stroke="none" stroke-width="1" opacity="1" />
    <path id="path-81" d="M 5 21 h 3 v 1 h -3 Z" fill="rgb(0,0,0)" stroke="none" stroke-width="1" opacity="1" />
    <path id="path-82" d="M 8 21 h 16 v 1 h -16 Z" fill="rgb(255,255,255)" stroke="none" stroke-width="1" opacity="1" />
    <path id="path-83" d="M 24 21 h 3 v 1 h -3 Z" fill="rgb(0,0,0)" stroke="none" stroke-width="1" opacity="1" />
    <path id="path-84" d="M 6 22 h 20 v 1 h -20 Z" fill="rgb(0,0,0)" stroke="none" stroke-width="1" opacity="1" />
    <path id="path-85" d="M 7 23 h 18 v 1 h -18 Z" fill="rgb(0,0,0)" stroke="none" stroke-width="1" opacity="1" />
  </g>
</svg>
